<svg width="308" height="113" viewBox="0 0 308 113" fill="none" xmlns="http://www.w3.org/2000/svg">
<mask id="mask0_614_9774" style="mask-type:luminance" maskUnits="userSpaceOnUse" x="0" y="0" width="51" height="110">
<path d="M50.7186 0H0V109.295H50.7186V0Z" fill="white"/>
</mask>
<g mask="url(#mask0_614_9774)">
<path d="M18.6314 79.6754V41.7145H2.94031V27.879H49.1345V41.7145H33.4435V79.6754H18.6314Z" fill="#0A1A21"/>
</g>
<path d="M40.0463 80.9593L59.6133 30.3786H74.0075L93.5745 80.9593H78.0996L75.3764 73.81H58.1724L55.4347 80.9593H40.0463ZM61.1982 63.115H72.4226L66.8032 47.427L61.1982 63.115Z" fill="#23A997"/>
<path d="M119.175 82.0448C113.948 82.0448 109.355 80.9413 105.4 78.7306C101.441 76.5127 98.3469 73.4157 96.1208 69.4394C93.891 65.4667 92.778 60.8718 92.778 55.6617C92.778 50.4626 93.8766 45.8749 96.0775 41.8986C98.2857 37.9259 101.369 34.8325 105.328 32.6218C109.283 30.404 113.851 29.2932 119.031 29.2932C123.544 29.2932 127.622 30.1615 131.264 31.8982C134.902 33.6349 137.956 36.0735 140.427 39.2067C142.906 42.3328 144.577 46.0377 145.442 50.3215H130.759C129.988 48.0566 128.598 46.2367 126.581 44.8654C124.571 43.4978 122.247 42.8103 119.607 42.8103C117.251 42.8103 115.162 43.3531 113.339 44.4312C111.524 45.513 110.097 47.0182 109.06 48.9466C108.03 50.8787 107.518 53.1146 107.518 55.6617C107.518 58.1727 108.022 60.405 109.031 62.3624C110.04 64.3126 111.441 65.8285 113.238 66.9067C115.043 67.9885 117.118 68.5276 119.463 68.5276C122.2 68.5276 124.571 67.8185 126.581 66.4002C128.598 64.9819 130.06 63.0933 130.975 60.7271H145.73C145.009 65.0109 143.424 68.7556 140.975 71.9576C138.526 75.1632 135.442 77.6452 131.725 79.4108C128.014 81.1656 123.832 82.0448 119.175 82.0448Z" fill="#23A997"/>
<path d="M173.27 82.0448C168.043 82.0448 163.45 80.9413 159.495 78.7306C155.537 76.5127 152.442 73.4157 150.216 69.4394C147.986 65.4667 146.873 60.8718 146.873 55.6617C146.873 50.4626 147.972 45.8749 150.173 41.8986C152.381 37.9259 155.464 34.8325 159.423 32.6218C163.378 30.404 167.946 29.2932 173.126 29.2932C177.639 29.2932 181.717 30.1615 185.359 31.8982C188.997 33.6349 192.052 36.0735 194.523 39.2067C197.001 42.3328 198.673 46.0377 199.537 50.3215H184.855C184.084 48.0566 182.693 46.2367 180.676 44.8654C178.666 43.4978 176.343 42.8103 173.702 42.8103C171.346 42.8103 169.257 43.3531 167.434 44.4312C165.619 45.513 164.193 47.0182 163.155 48.9466C162.125 50.8787 161.613 53.1146 161.613 55.6617C161.613 58.1727 162.118 60.405 163.126 62.3624C164.135 64.3126 165.536 65.8285 167.334 66.9067C169.138 67.9885 171.213 68.5276 173.558 68.5276C176.296 68.5276 178.666 67.8185 180.676 66.4002C182.693 64.9819 184.156 63.0933 185.071 60.7271H199.825C199.105 65.0109 197.52 68.7556 195.07 71.9576C192.621 75.1632 189.537 77.6452 185.82 79.4108C182.11 81.1656 177.928 82.0448 173.27 82.0448Z" fill="#23A997"/>
<mask id="mask1_614_9774" style="mask-type:luminance" maskUnits="userSpaceOnUse" x="39" y="88" width="51" height="9">
<path d="M39.541 88.3534H89.3086V96.1034H39.541V88.3534Z" fill="white"/>
</mask>
<g mask="url(#mask1_614_9774)">
<mask id="mask2_614_9774" style="mask-type:luminance" maskUnits="userSpaceOnUse" x="38" y="87" width="52" height="10">
<path d="M89.449 87.9916H38.7305V96.3277H89.449V87.9916Z" fill="white"/>
</mask>
<g mask="url(#mask2_614_9774)">
<mask id="mask3_614_9774" style="mask-type:luminance" maskUnits="userSpaceOnUse" x="39" y="88" width="51" height="9">
<path d="M39.541 88.3534H89.3086V96.1034H39.541V88.3534Z" fill="white"/>
</mask>
<g mask="url(#mask3_614_9774)">
<path d="M39.541 88.3534H89.2978V96.1034H39.541V88.3534Z" fill="#23A997"/>
</g>
</g>
</g>
<mask id="mask4_614_9774" style="mask-type:luminance" maskUnits="userSpaceOnUse" x="201" y="0" width="48" height="112">
<path d="M248.06 0.926338H201.03V111.147H248.06V0.926338Z" fill="white"/>
</mask>
<g mask="url(#mask4_614_9774)">
<path d="M226.18 82.7498C219.415 82.7498 214.112 81.1397 210.272 77.916C206.44 74.6851 204.523 70.2421 204.523 64.587H219.09C219.09 66.5951 219.699 68.1617 220.92 69.2905C222.138 70.4121 223.82 70.9693 225.963 70.9693C227.808 70.9693 229.249 70.6075 230.286 69.8839C231.331 69.1603 231.857 68.1472 231.857 66.8447C231.857 63.943 228.719 61.8662 222.448 60.6216C210.748 58.3748 204.898 52.8464 204.898 44.0364C204.898 39.0868 206.674 35.1757 210.229 32.2993C213.792 29.4266 218.662 27.9866 224.84 27.9866C229.123 27.9866 232.844 28.7174 236.006 30.1719C239.165 31.6191 241.604 33.6814 243.326 36.3516C245.044 39.0253 245.905 42.1658 245.905 45.773H231.712C231.712 43.7686 231.14 42.2418 229.998 41.1998C228.852 40.1506 227.235 39.6223 225.142 39.6223C223.402 39.6223 222.008 39.9841 220.964 40.7077C219.915 41.4314 219.393 42.4444 219.393 43.7469C219.393 45.1001 220.088 46.2217 221.482 47.119C222.873 48.0163 225.236 48.8412 228.571 49.5937C234.947 50.9939 239.594 53.0345 242.505 55.7155C245.415 58.3893 246.87 61.8952 246.87 66.2369C246.87 71.389 245.048 75.434 241.41 78.3647C237.779 81.2881 232.699 82.7498 226.18 82.7498Z" fill="#0A1A21"/>
</g>
<mask id="mask5_614_9774" style="mask-type:luminance" maskUnits="userSpaceOnUse" x="246" y="1" width="62" height="112">
<path d="M308 1.85268H246.216V113H308V1.85268Z" fill="white"/>
</mask>
<g mask="url(#mask5_614_9774)">
<path d="M277.894 83.9909C273.687 83.9909 269.84 83.3252 266.353 81.9938C262.866 80.6623 259.844 78.7628 257.29 76.2917C254.732 73.8241 252.751 70.9043 251.339 67.5359C249.934 64.1603 249.235 60.4553 249.235 56.4212C249.235 52.3906 249.934 48.6894 251.339 45.3209C252.751 41.9453 254.732 39.0219 257.29 36.5507C259.844 34.0832 262.866 32.1801 266.353 30.8486C269.84 29.5172 273.687 28.8514 277.894 28.8514C282.109 28.8514 285.956 29.5172 289.435 30.8486C292.922 32.1801 295.941 34.0832 298.498 36.5507C301.063 39.0219 303.044 41.9453 304.449 45.3209C305.85 48.6894 306.553 52.3906 306.553 56.4212C306.553 60.4553 305.85 64.1603 304.449 67.5359C303.044 70.9043 301.063 73.8241 298.498 76.2917C295.941 78.7628 292.922 80.6623 289.435 81.9938C285.956 83.3252 282.109 83.9909 277.894 83.9909ZM264.667 56.4212C264.667 59.0371 265.229 61.3671 266.353 63.4113C267.476 65.4483 269.04 67.0366 271.05 68.1727C273.056 69.3015 275.336 69.866 277.894 69.866C280.506 69.866 282.8 69.3015 284.781 68.1727C286.759 67.0366 288.311 65.4483 289.435 63.4113C290.566 61.3671 291.136 59.0371 291.136 56.4212C291.136 53.751 290.566 51.4101 289.435 49.4021C288.311 47.3868 286.759 45.813 284.781 44.6841C282.8 43.5481 280.506 42.9764 277.894 42.9764C275.336 42.9764 273.056 43.5481 271.05 44.6841C269.04 45.813 267.476 47.3868 266.353 49.4021C265.229 51.4101 264.667 53.751 264.667 56.4212Z" fill="#0A1A21"/>
</g>
<mask id="mask6_614_9774" style="mask-type:luminance" maskUnits="userSpaceOnUse" x="96" y="88" width="50" height="9">
<path d="M96.0195 88.3534H145.791V96.1034H96.0195V88.3534Z" fill="white"/>
</mask>
<g mask="url(#mask6_614_9774)">
<mask id="mask7_614_9774" style="mask-type:luminance" maskUnits="userSpaceOnUse" x="95" y="87" width="52" height="10">
<path d="M146.623 87.9916H95.9043V96.3277H146.623V87.9916Z" fill="white"/>
</mask>
<g mask="url(#mask7_614_9774)">
<mask id="mask8_614_9774" style="mask-type:luminance" maskUnits="userSpaceOnUse" x="96" y="88" width="50" height="9">
<path d="M96.0195 88.3534H145.791V96.1034H96.0195V88.3534Z" fill="white"/>
</mask>
<g mask="url(#mask8_614_9774)">
<path d="M96.0195 88.3534H145.776V96.1034H96.0195V88.3534Z" fill="#23A997"/>
</g>
</g>
</g>
<mask id="mask9_614_9774" style="mask-type:luminance" maskUnits="userSpaceOnUse" x="152" y="88" width="51" height="9">
<path d="M152.689 88.3534H202.46V96.1034H152.689V88.3534Z" fill="white"/>
</mask>
<g mask="url(#mask9_614_9774)">
<mask id="mask10_614_9774" style="mask-type:luminance" maskUnits="userSpaceOnUse" x="152" y="87" width="51" height="10">
<path d="M202.874 87.9916H152.156V96.3277H202.874V87.9916Z" fill="white"/>
</mask>
<g mask="url(#mask10_614_9774)">
<mask id="mask11_614_9774" style="mask-type:luminance" maskUnits="userSpaceOnUse" x="152" y="88" width="51" height="9">
<path d="M152.689 88.3534H202.46V96.1034H152.689V88.3534Z" fill="white"/>
</mask>
<g mask="url(#mask11_614_9774)">
<path d="M152.689 88.3534H202.446V96.1034H152.689V88.3534Z" fill="#23A997"/>
</g>
</g>
</g>
</svg>
